<svg width="512" height="512" viewBox="0 0 512 512" fill="none" xmlns="http://www.w3.org/2000/svg">
  <rect width="512" height="512" fill="#000000" />
  
  <rect x="40" y="40" width="432" height="432" stroke="#1a1a1a" stroke-width="2" fill="none" />
  
  <path d="M 40 80 V 40 H 80" stroke="#FFFFFF" stroke-width="4" fill="none" />
  <path d="M 432 40 H 472 V 80" stroke="#FFFFFF" stroke-width="4" fill="none" />
  <path d="M 472 432 V 472 H 432" stroke="#FFFFFF" stroke-width="4" fill="none" />
  <path d="M 80 472 H 40 V 432" stroke="#FFFFFF" stroke-width="4" fill="none" />

  <line x1="256" y1="20" x2="256" y2="40" stroke="#333333" stroke-width="2" />
  <line x1="256" y1="472" x2="256" y2="492" stroke="#333333" stroke-width="2" />
  <line x1="20" y1="256" x2="40" y2="256" stroke="#333333" stroke-width="2" />
  <line x1="472" y1="256" x2="492" y2="256" stroke="#333333" stroke-width="2" />

  <g fill="#FFFFFF">
    <rect x="150" y="126" width="40" height="260" />
    
    <rect x="236" y="126" width="40" height="260" />
    
    <rect x="322" y="126" width="40" height="260" />
    
    <path d="M 190 256 L 236 210 V 154 L 190 200 Z" />
    
    <path d="M 190 256 L 236 302 V 358 L 190 312 Z" />
    
    <rect x="276" y="236" width="46" height="40" />
    
    <rect x="382" y="346" width="16" height="40" />
  </g>
</svg>